<svg aria-hidden="true" style="position: absolute; width: 0; height: 0; overflow: hidden;" version="1.1" xmlns="http://www.w3.org/2000/svg" xmlns:xlink="http://www.w3.org/1999/xlink">
<defs>
<symbol id="icon-old-message" viewBox="0 0 32 32">
<path fill="none" stroke="#f4f4ff" stroke-width="2.6667" stroke-miterlimit="4" stroke-linecap="butt" stroke-linejoin="miter" style="stroke: var(--color1, #f4f4ff)" d="M1.333 4h29.333v24h-29.333z"></path>
<path fill="none" stroke="#cbccff" stroke-width="2.6667" stroke-miterlimit="4" stroke-linecap="square" stroke-linejoin="miter" style="stroke: var(--color2, #cbccff)" d="M8 10.667h16M8 16h16M8 21.333h6.667"></path>
</symbol>
<symbol id="icon-Squear" viewBox="0 0 32 32">
<path fill="none" stroke="#f4f4ff" stroke-width="2.6667" stroke-miterlimit="4" stroke-linecap="square" stroke-linejoin="miter" style="stroke: var(--color1, #f4f4ff)" d="M13.519 26.11l-5.573 2.92 1.573-9.173-6.666-6.493 9.213-1.347 4.12-8.346 4.12 8.346 9.213 1.347-4 3.893"></path>
<path fill="none" stroke="#cbccff" stroke-width="2.6667" stroke-miterlimit="4" stroke-linecap="square" stroke-linejoin="miter" style="stroke: var(--color2, #cbccff)" d="M30.851 29.684h-11.999M30.851 23.017h-11.999"></path>
</symbol>
<symbol id="icon-Message" viewBox="0 0 33 32">
<path fill="none" stroke="#cbccff" stroke-width="2.7162" stroke-miterlimit="4" stroke-linecap="square" stroke-linejoin="miter" style="stroke: var(--color2, #cbccff)" d="M24.446 4.071v-2.716M27.325 5.253l1.915-1.915M28.52 8.146h2.716M27.325 11.025l1.915 1.915M24.446 12.22v2.716M21.553 11.025l-1.915 1.915M20.372 8.146h-2.716M21.553 5.253l-1.915-1.915"></path>
<path fill="none" stroke="#cbccff" stroke-width="2.7162" stroke-miterlimit="4" stroke-linecap="butt" stroke-linejoin="miter" style="stroke: var(--color2, #cbccff)" d="M28.52 8.146c0 2.25-1.824 4.074-4.074 4.074s-4.074-1.824-4.074-4.074c0-2.25 1.824-4.074 4.074-4.074s4.074 1.824 4.074 4.074z"></path>
<path fill="none" stroke="#f4f4ff" stroke-width="2.7162" stroke-miterlimit="4" stroke-linecap="square" stroke-linejoin="miter" style="stroke: var(--color1, #f4f4ff)" d="M13.377 2.944c-6.859 1.1-12.019 6.003-12.019 11.979 0 6.791 6.655 12.223 14.939 12.223 1.412 0.041 2.838-0.149 4.21-0.543l8.013 3.259-0.815-7.062c1.123-1.115 2.034-2.44 2.671-3.912l0.031-0.081"></path>
</symbol>
<symbol id="icon-Like" viewBox="0 0 32 32">
<path fill="none" stroke="#f4f4ff" stroke-width="2.6667" stroke-miterlimit="4" stroke-linecap="square" stroke-linejoin="miter" style="stroke: var(--color1, #f4f4ff)" d="M10.666 29.842h13.626c1.173 0 2.213-0.76 2.56-1.88l3.693-11.999c0.24-0.813 0.093-1.693-0.413-2.373-0.486-0.658-1.259-1.080-2.13-1.080-0.001 0-0.003 0-0.004 0h-9.333v-5.333c0-3.16-1.68-4.653-3.693-5.146-0.090-0.022-0.194-0.034-0.3-0.034-0.74 0-1.34 0.6-1.34 1.34 0 0 0 0 0 0.001v-0 5.173l-6.666 8"></path>
<path fill="none" stroke="#cbccff" stroke-width="2.6667" stroke-miterlimit="4" stroke-linecap="butt" stroke-linejoin="miter" style="stroke: var(--color2, #cbccff)" d="M1.333 13.852h5.333v15.999h-5.333z"></path>
</symbol>
<symbol id="icon-Head" viewBox="0 0 30 32">
<path fill="none" stroke="#f4f4ff" stroke-width="2.6662" stroke-miterlimit="4" stroke-linecap="square" stroke-linejoin="miter" style="stroke: var(--color1, #f4f4ff)" d="M24.36 30.667v-8.4c2.414-2.168 3.942-5.28 4-8.75l0-0.010c0.027-6.533-5.133-11.92-11.653-12.173-0.099-0.003-0.216-0.005-0.333-0.005-3.26 0-6.219 1.293-8.39 3.394l0.003-0.003c-2.238 2.18-3.627 5.224-3.627 8.591 0 0.008 0 0.015 0 0.023v-0.001 1.333l-2.667 6.667 2.667 1.333v5.333c0 1.473 1.194 2.667 2.667 2.667v0h5.333c1.76 0 3.453-0.707 4.707-1.96 1.253-1.24 1.96-2.933 1.96-4.707v-6.667"></path>
<path fill="none" stroke="#cbccff" stroke-width="2.6662" stroke-miterlimit="4" stroke-linecap="butt" stroke-linejoin="miter" style="stroke: var(--color2, #cbccff)" d="M23.026 13.339c0 2.209-1.791 4-4 4s-4-1.791-4-4c0-2.209 1.791-4 4-4s4 1.791 4 4z"></path>
</symbol>
<symbol id="icon-Globus" viewBox="0 0 32 32">
<path fill="none" stroke="#CBCCFF" stroke-width="2.6667" stroke-miterlimit="4" stroke-linecap="butt" stroke-linejoin="miter" style="stroke: #CBCCFF" d="M23.333 16c0 8.1-3.283 14.667-7.333 14.667s-7.333-6.566-7.333-14.667c0-8.1 3.283-14.667 7.333-14.667s7.333 6.566 7.333 14.667z"></path>
<path fill="none" stroke="#f4f4ff" stroke-width="2.6667" stroke-miterlimit="4" stroke-linecap="square" stroke-linejoin="miter" style="stroke: currentColor" d="M16 1.333v29.333M1.333 16h29.333"></path>
<path fill="none" stroke="#f4f4ff" stroke-width="2.6667" stroke-miterlimit="4" stroke-linecap="butt" stroke-linejoin="miter" style="stroke: currentColor" d="M30.667 16c0 8.1-6.567 14.667-14.667 14.667s-14.667-6.566-14.667-14.667c0-8.1 6.566-14.667 14.667-14.667s14.667 6.566 14.667 14.667z"></path>
</symbol>
<symbol id="icon-facebook" viewBox="0 0 32 32">
<path d="M19 6h5v-6h-5c-3.86 0-7 3.14-7 7v3h-4v6h4v16h6v-16h5l1-6h-6v-3c0-0.542 0.458-1 1-1z"></path>
</symbol>
<symbol id="icon-instagram" viewBox="0 0 32 32">
<path d="M16 2.881c4.275 0 4.781 0.019 6.462 0.094 1.563 0.069 2.406 0.331 2.969 0.55 0.744 0.288 1.281 0.638 1.837 1.194 0.563 0.563 0.906 1.094 1.2 1.838 0.219 0.563 0.481 1.412 0.55 2.969 0.075 1.688 0.094 2.194 0.094 6.463s-0.019 4.781-0.094 6.463c-0.069 1.563-0.331 2.406-0.55 2.969-0.288 0.744-0.637 1.281-1.194 1.837-0.563 0.563-1.094 0.906-1.837 1.2-0.563 0.219-1.413 0.481-2.969 0.55-1.688 0.075-2.194 0.094-6.463 0.094s-4.781-0.019-6.463-0.094c-1.563-0.069-2.406-0.331-2.969-0.55-0.744-0.288-1.281-0.637-1.838-1.194-0.563-0.563-0.906-1.094-1.2-1.837-0.219-0.563-0.481-1.413-0.55-2.969-0.075-1.688-0.094-2.194-0.094-6.463s0.019-4.781 0.094-6.463c0.069-1.563 0.331-2.406 0.55-2.969 0.288-0.744 0.638-1.281 1.194-1.838 0.563-0.563 1.094-0.906 1.838-1.2 0.563-0.219 1.412-0.481 2.969-0.55 1.681-0.075 2.188-0.094 6.463-0.094zM16 0c-4.344 0-4.887 0.019-6.594 0.094-1.7 0.075-2.869 0.35-3.881 0.744-1.056 0.412-1.95 0.956-2.837 1.85-0.894 0.888-1.438 1.781-1.85 2.831-0.394 1.019-0.669 2.181-0.744 3.881-0.075 1.713-0.094 2.256-0.094 6.6s0.019 4.887 0.094 6.594c0.075 1.7 0.35 2.869 0.744 3.881 0.413 1.056 0.956 1.95 1.85 2.837 0.887 0.887 1.781 1.438 2.831 1.844 1.019 0.394 2.181 0.669 3.881 0.744 1.706 0.075 2.25 0.094 6.594 0.094s4.888-0.019 6.594-0.094c1.7-0.075 2.869-0.35 3.881-0.744 1.050-0.406 1.944-0.956 2.831-1.844s1.438-1.781 1.844-2.831c0.394-1.019 0.669-2.181 0.744-3.881 0.075-1.706 0.094-2.25 0.094-6.594s-0.019-4.887-0.094-6.594c-0.075-1.7-0.35-2.869-0.744-3.881-0.394-1.063-0.938-1.956-1.831-2.844-0.887-0.887-1.781-1.438-2.831-1.844-1.019-0.394-2.181-0.669-3.881-0.744-1.712-0.081-2.256-0.1-6.6-0.1v0z"></path>
<path d="M16 7.781c-4.537 0-8.219 3.681-8.219 8.219s3.681 8.219 8.219 8.219 8.219-3.681 8.219-8.219c0-4.537-3.681-8.219-8.219-8.219zM16 21.331c-2.944 0-5.331-2.387-5.331-5.331s2.387-5.331 5.331-5.331c2.944 0 5.331 2.387 5.331 5.331s-2.387 5.331-5.331 5.331z"></path>
<path d="M26.462 7.456c0 1.060-0.859 1.919-1.919 1.919s-1.919-0.859-1.919-1.919c0-1.060 0.859-1.919 1.919-1.919s1.919 0.859 1.919 1.919z"></path>
</symbol>
<symbol id="icon-twitter" viewBox="0 0 32 32">
<path d="M32 7.075c-1.175 0.525-2.444 0.875-3.769 1.031 1.356-0.813 2.394-2.1 2.887-3.631-1.269 0.75-2.675 1.3-4.169 1.594-1.2-1.275-2.906-2.069-4.794-2.069-3.625 0-6.563 2.938-6.563 6.563 0 0.512 0.056 1.012 0.169 1.494-5.456-0.275-10.294-2.888-13.531-6.862-0.563 0.969-0.887 2.1-0.887 3.3 0 2.275 1.156 4.287 2.919 5.463-1.075-0.031-2.087-0.331-2.975-0.819 0 0.025 0 0.056 0 0.081 0 3.181 2.263 5.838 5.269 6.437-0.55 0.15-1.131 0.231-1.731 0.231-0.425 0-0.831-0.044-1.237-0.119 0.838 2.606 3.263 4.506 6.131 4.563-2.25 1.762-5.075 2.813-8.156 2.813-0.531 0-1.050-0.031-1.569-0.094 2.913 1.869 6.362 2.95 10.069 2.95 12.075 0 18.681-10.006 18.681-18.681 0-0.287-0.006-0.569-0.019-0.85 1.281-0.919 2.394-2.075 3.275-3.394z"></path>
</symbol>
<symbol id="icon-github" viewBox="0 0 32 32">
<path d="M16 0.395c-8.836 0-16 7.163-16 16 0 7.069 4.585 13.067 10.942 15.182 0.8 0.148 1.094-0.347 1.094-0.77 0-0.381-0.015-1.642-0.022-2.979-4.452 0.968-5.391-1.888-5.391-1.888-0.728-1.849-1.776-2.341-1.776-2.341-1.452-0.993 0.11-0.973 0.11-0.973 1.606 0.113 2.452 1.649 2.452 1.649 1.427 2.446 3.743 1.739 4.656 1.33 0.143-1.034 0.558-1.74 1.016-2.14-3.554-0.404-7.29-1.777-7.29-7.907 0-1.747 0.625-3.174 1.649-4.295-0.166-0.403-0.714-2.030 0.155-4.234 0 0 1.344-0.43 4.401 1.64 1.276-0.355 2.645-0.532 4.005-0.539 1.359 0.006 2.729 0.184 4.008 0.539 3.054-2.070 4.395-1.64 4.395-1.64 0.871 2.204 0.323 3.831 0.157 4.234 1.026 1.12 1.647 2.548 1.647 4.295 0 6.145-3.743 7.498-7.306 7.895 0.574 0.497 1.085 1.47 1.085 2.963 0 2.141-0.019 3.864-0.019 4.391 0 0.426 0.288 0.925 1.099 0.768 6.354-2.118 10.933-8.113 10.933-15.18 0-8.837-7.164-16-16-16z"></path>
</symbol>
<symbol id="icon-linkedin" viewBox="0 0 32 32">
<path d="M29 0h-26c-1.65 0-3 1.35-3 3v26c0 1.65 1.35 3 3 3h26c1.65 0 3-1.35 3-3v-26c0-1.65-1.35-3-3-3zM12 26h-4v-14h4v14zM10 10c-1.106 0-2-0.894-2-2s0.894-2 2-2c1.106 0 2 0.894 2 2s-0.894 2-2 2zM26 26h-4v-8c0-1.106-0.894-2-2-2s-2 0.894-2 2v8h-4v-14h4v2.481c0.825-1.131 2.087-2.481 3.5-2.481 2.488 0 4.5 2.238 4.5 5v9z"></path>
</symbol>
<symbol id="icon-checkmark" viewBox="0 0 32 32">
<path d="M27 4l-15 15-7-7-5 5 12 12 20-20z"></path>
</symbol>
</defs>
</svg>
